<svg id="Layer_1" data-name="Layer 1" xmlns="http://www.w3.org/2000/svg" viewBox="0 0 530 330"><defs><style>.cls-1{font-size:28.53px;font-family:Calibri;}.cls-2{letter-spacing:-0.01em;}.cls-3{letter-spacing:-0.01em;}.cls-4{letter-spacing:-0.01em;}.cls-5{letter-spacing:0em;}.cls-6{letter-spacing:-0.01em;}.cls-7{letter-spacing:-0.01em;}.cls-8{font-size:34.53px;letter-spacing:0em;}.cls-9{font-size:14.26px;}.cls-10{letter-spacing:-0.09em;}.cls-11{letter-spacing:0em;}.cls-12{letter-spacing:-0.01em;}.cls-13{letter-spacing:-0.01em;}.cls-14{letter-spacing:-0.02em;}.cls-15{letter-spacing:0em;}.cls-16{letter-spacing:-0.01em;}.cls-17{letter-spacing:-0.01em;}.cls-18{letter-spacing:-0.01em;}.cls-19{letter-spacing:-0.02em;}.cls-20{letter-spacing:-0.01em;}.cls-21{letter-spacing:-0.01em;}.cls-22{letter-spacing:-0.01em;}.cls-23{letter-spacing:-0.02em;}.cls-24{letter-spacing:-0.01em;}.cls-25{letter-spacing:0em;}.cls-26{letter-spacing:-0.01em;}.cls-27{letter-spacing:-0.02em;}.cls-28{letter-spacing:-0.02em;}.cls-29{fill:#808285;}.cls-30,.cls-34{fill:none;stroke-miterlimit:10;}.cls-30{stroke:#808285;stroke-width:2.01px;}.cls-31{fill:#fff;}.cls-32{fill:#158412;}.cls-33{fill:#999;}.cls-34{stroke:#999;stroke-width:1.9px;}</style></defs><text class="cls-1" transform="translate(22.51 206.31)">I<tspan class="cls-2" x="7.19" y="0">n</tspan><tspan class="cls-3" x="21.91" y="0">t</tspan><tspan x="31.16" y="0">ern</tspan><tspan class="cls-4" x="70.28" y="0">e</tspan><tspan class="cls-5" x="84.32" y="0">t Explo</tspan><tspan class="cls-6" x="163.19" y="0">r</tspan><tspan class="cls-5" x="172.76" y="0">er is no lon</tspan><tspan class="cls-7" x="300.55" y="0">g</tspan><tspan x="313.74" y="0">er suppor</tspan><tspan class="cls-3" x="425.43" y="0">t</tspan><tspan x="434.68" y="0">ed.</tspan><tspan class="cls-8" x="471.06" y="0"> </tspan><tspan class="cls-9"><tspan class="cls-10" x="80.56" y="34.23">T</tspan><tspan class="cls-11" x="86.24" y="34.23">o </tspan><tspan class="cls-12" x="96.99" y="34.23">g</tspan><tspan class="cls-4" x="103.58" y="34.23">e</tspan><tspan x="110.6" y="34.23">t the be</tspan><tspan class="cls-13" x="155.79" y="34.23">s</tspan><tspan x="161.21" y="34.23">t </tspan><tspan class="cls-14" x="169.21" y="34.23">e</tspan><tspan class="cls-15" x="176.09" y="34.23">xperience while using our appli</tspan><tspan class="cls-16" x="355.95" y="34.23">c</tspan><tspan class="cls-2" x="361.87" y="34.23">a</tspan><tspan x="368.57" y="34.23">tion, </tspan><tspan class="cls-17" x="37.23" y="51.35">y</tspan><tspan x="43.52" y="51.35">ou will need </tspan><tspan class="cls-18" x="117.4" y="51.35">t</tspan><tspan x="122.04" y="51.35">o use Mic</tspan><tspan class="cls-19" x="177.68" y="51.35">r</tspan><tspan x="182.42" y="51.35">osoft </tspan><tspan class="cls-20" x="215.05" y="51.35">E</tspan><tspan x="221.8" y="51.35">d</tspan><tspan class="cls-12" x="229.29" y="51.35">g</tspan><tspan x="235.89" y="51.35">e or Google Ch</tspan><tspan class="cls-19" x="321.38" y="51.35">r</tspan><tspan x="326.12" y="51.35">ome l</tspan><tspan class="cls-2" x="358.63" y="51.35">a</tspan><tspan class="cls-21" x="365.33" y="51.35">t</tspan><tspan x="369.95" y="51.35">e</tspan><tspan class="cls-22" x="377.05" y="51.35">s</tspan><tspan x="382.47" y="51.35">t </tspan><tspan class="cls-18" x="390.47" y="51.35">v</tspan><tspan x="396.77" y="51.35">e</tspan><tspan class="cls-23" x="403.87" y="51.35">r</tspan><tspan x="408.6" y="51.35">sions.</tspan><tspan x="54.89" y="85.58">Ou</tspan><tspan class="cls-24" x="71.83" y="85.58">t</tspan><tspan class="cls-11" x="76.45" y="85.58">d</tspan><tspan class="cls-2" x="83.94" y="85.58">a</tspan><tspan class="cls-21" x="90.64" y="85.58">t</tspan><tspan x="95.26" y="85.58">ed b</tspan><tspan class="cls-19" x="120.57" y="85.58">r</tspan><tspan class="cls-25" x="125.31" y="85.58">o</tspan><tspan class="cls-26" x="132.78" y="85.58">w</tspan><tspan class="cls-11" x="142.85" y="85.58">se</tspan><tspan class="cls-27" x="155.53" y="85.58">r</tspan><tspan class="cls-11" x="160.25" y="85.58">s </tspan><tspan class="cls-16" x="169.06" y="85.58">c</tspan><tspan x="174.97" y="85.58">an </tspan><tspan class="cls-28" x="192.52" y="85.58">e</tspan><tspan x="199.4" y="85.58">xpose </tspan><tspan class="cls-17" x="236.49" y="85.58">y</tspan><tspan x="242.78" y="85.58">our </tspan><tspan class="cls-12" x="265.99" y="85.58">c</tspan><tspan class="cls-11" x="271.91" y="85.58">ompu</tspan><tspan class="cls-21" x="305.81" y="85.58">t</tspan><tspan x="310.43" y="85.58">er </tspan><tspan class="cls-18" x="325.73" y="85.58">t</tspan><tspan x="330.36" y="85.58">o a security risk.</tspan></tspan></text><rect class="cls-29" x="165.37" y="25.69" width="186.23" height="124.24" rx="4.01"/><rect class="cls-30" x="165.37" y="25.69" width="186.23" height="124.24" rx="4.01"/><path class="cls-31" d="M165.37,50.93v95a4,4,0,0,0,4,4h178.2a4,4,0,0,0,4-4V51"/><path class="cls-30" d="M165.37,50.93v95a4,4,0,0,0,4,4h178.2a4,4,0,0,0,4-4V51"/><rect class="cls-32" x="165.98" y="41.92" width="185" height="9.02"/><circle class="cls-31" cx="340.35" cy="33.75" r="3.76"/><circle class="cls-31" cx="326.77" cy="33.75" r="3.76"/><circle class="cls-31" cx="313.18" cy="33.75" r="3.76"/><ellipse class="cls-33" cx="241.15" cy="77.67" rx="4.62" ry="9.33"/><ellipse class="cls-33" cx="275.81" cy="77.67" rx="4.62" ry="9.33"/><ellipse class="cls-33" cx="258.57" cy="97.57" rx="3.38" ry="5.24"/><path class="cls-34" d="M278.12,133.92c0-12-8.71-21.68-19.46-21.68S239.2,122,239.2,133.92"/></svg>